<svg width="30" height="30" viewBox="0 0 30 30" fill="none" xmlns="http://www.w3.org/2000/svg">
<path d="M21.5373 15.0533C20.9608 14.7792 20.3726 14.5432 19.774 14.3454C21.7125 12.8904 22.9687 10.5735 22.9687 7.96876C22.9687 3.57481 19.394 0 15 0C10.606 0 7.03123 3.57481 7.03123 7.96876C7.03123 10.5764 8.2903 12.8956 10.2324 14.3503C8.45301 14.9361 6.78338 15.8476 5.32205 17.0496C2.64244 19.2537 0.779334 22.3281 0.0760322 25.7065C-0.144398 26.765 0.119685 27.8523 0.800427 28.6893C1.47783 29.5223 2.4823 30 3.55621 30H17.9883C18.6355 30 19.1602 29.4754 19.1602 28.8282C19.1602 28.1809 18.6355 27.6563 17.9883 27.6563H3.55621C3.05594 27.6563 2.75412 27.377 2.61877 27.2106C2.38504 26.9232 2.29457 26.5491 2.37057 26.1841C3.58668 20.3426 8.73919 16.0754 14.6893 15.9315C14.7924 15.9355 14.8959 15.9375 15 15.9375C15.1051 15.9375 15.2096 15.9355 15.3137 15.9314C17.1371 15.9742 18.8909 16.3903 20.5311 17.1701C21.1157 17.4478 21.8147 17.1993 22.0926 16.6147C22.3704 16.0302 22.1219 15.3311 21.5373 15.0533ZM15.2858 13.5866C15.1907 13.5849 15.0954 13.584 15 13.584C14.9054 13.584 14.8109 13.5849 14.7164 13.5867C11.746 13.4385 9.37499 10.9753 9.37499 7.96876C9.37499 4.86709 11.8983 2.34375 15 2.34375C18.1017 2.34375 20.625 4.86709 20.625 7.96876C20.625 10.9746 18.2552 13.4373 15.2858 13.5866Z" fill="white"/>
<path d="M28.8281 23.2617H25.6055V20.0391C25.6055 19.3918 25.0808 18.8672 24.4336 18.8672C23.7864 18.8672 23.2617 19.3918 23.2617 20.0391V23.2617H20.0391C19.3918 23.2617 18.8672 23.7864 18.8672 24.4336C18.8672 25.0808 19.3918 25.6055 20.0391 25.6055H23.2617V28.8281C23.2617 29.4754 23.7864 30 24.4336 30C25.0808 30 25.6055 29.4754 25.6055 28.8281V25.6055H28.8281C29.4754 25.6055 30 25.0808 30 24.4336C30 23.7864 29.4754 23.2617 28.8281 23.2617Z" fill="white"/>
</svg>
